<?xml version="1.0" encoding="utf-8"?>
<!-- Generator: Adobe Illustrator 21.0.0, SVG Export Plug-In . SVG Version: 6.00 Build 0)  -->
<svg version="1.1" id="Layer_1" xmlns="http://www.w3.org/2000/svg" xmlns:xlink="http://www.w3.org/1999/xlink" x="0px" y="0px"
	 viewBox="0 0 36 24" style="enable-background:new 0 0 36 24;" xml:space="preserve">
<style type="text/css">
	.st0{fill:#019179;}
	.st1{fill:#FFFFFF;}
</style>
<path class="st0" d="M33,0H3C1.3,0,0,1.3,0,3v18c0,1.7,1.3,3,3,3h30c1.7,0,3-1.3,3-3V3C36,1.3,34.7,0,33,0z"/>
<path id="ICON_card_diners.svg" class="st1" d="M16.9,5.1C13.1,5.1,10,8.2,10,12c0,3.8,3.1,6.9,6.9,6.9c3.8,0,6.9-3.1,6.9-6.9
	C23.8,8.2,20.7,5.1,16.9,5.1C16.9,5.1,16.9,5.1,16.9,5.1z M15.3,16c-2.2-0.9-3.4-3.4-2.5-5.6c0.4-1.2,1.4-2.1,2.5-2.5V16z M18.5,16
	V7.9c2.2,0.9,3.4,3.4,2.5,5.6C20.5,14.7,19.6,15.6,18.5,16L18.5,16z M18.8,19.5h-1.9c-4.1,0-7.5-3.3-7.6-7.4
	C9.2,8,12.5,4.6,16.5,4.5c0.1,0,0.2,0,0.4,0h1.9c4.2-0.1,7.7,3.2,7.8,7.5c0,0,0,0.1,0,0.1C26.7,16.2,22.9,19.5,18.8,19.5z"/>
</svg>
