<?xml version="1.0" encoding="utf-8"?>
<!-- Generator: Adobe Illustrator 21.0.0, SVG Export Plug-In . SVG Version: 6.00 Build 0)  -->
<svg version="1.1" id="Layer_1" xmlns="http://www.w3.org/2000/svg" xmlns:xlink="http://www.w3.org/1999/xlink" x="0px" y="0px"
	 viewBox="0 0 36 24" style="enable-background:new 0 0 36 24;" xml:space="preserve">
<style type="text/css">
	.st0{fill:#019179;}
	.st1{fill:#FFFFFF;}
</style>
<path id="ICON_card_elo.svg" class="st0" d="M36,3v18c0,1.7-1.3,3-3,3H3c-1.7,0-3-1.3-3-3V3c0-1.7,1.3-3,3-3h30C34.7,0,36,1.3,36,3z
	"/>
<path class="st1" d="M12.9,15.2c-0.9,0.9-2.4,1.1-3.5,0.4l-1.1,1.7c1.9,1.2,4.4,0.9,6-0.6L12.9,15.2z"/>
<path class="st1" d="M10.9,8.2C8.2,8.2,6,10.3,6,13c0,1,0.3,1.9,0.8,2.7l8.8-3.8C15.1,9.8,13.2,8.2,10.9,8.2z M8,13.4
	c0-0.1,0-0.2,0-0.3c0-1.6,1.3-2.9,2.9-2.8c0.8,0,1.6,0.4,2.1,1L8,13.4z"/>
<path class="st1" d="M18.4,6v9.4l1.6,0.7L19.3,18l-1.6-0.7c-0.3-0.1-0.6-0.4-0.8-0.7c-0.2-0.3-0.3-0.8-0.3-1.2V6H18.4z"/>
<path class="st1" d="M24.3,10.4c1.5-0.5,3.1,0.3,3.6,1.8c0,0.1,0.1,0.2,0.1,0.3l2-0.4c-0.5-2.6-3.1-4.4-5.8-3.8
	c-0.2,0-0.4,0.1-0.5,0.1L24.3,10.4z"/>
<path class="st1" d="M22,16.8l1.3-1.5c-1.2-1-1.3-2.9-0.2-4.1c0.1-0.1,0.2-0.2,0.2-0.2L22,9.4c-2,1.8-2.2,4.9-0.4,6.9
	C21.7,16.5,21.8,16.6,22,16.8L22,16.8z"/>
<path class="st1" d="M28,13.7c-0.3,1.6-1.8,2.6-3.4,2.2c-0.1,0-0.2-0.1-0.3-0.1l-0.6,1.9c2.6,0.9,5.3-0.5,6.2-3.1
	c0.1-0.2,0.1-0.4,0.2-0.6L28,13.7z"/>
</svg>
