<svg xmlns="http://www.w3.org/2000/svg" width="24" height="24" viewBox="0 0 24 24">
  <defs>
    <style>
      .cls-1 {
        fill: #fff;
        fill-rule: evenodd;
      }
    </style>
  </defs>
  <path id="ICON_insta.svg" class="cls-1" d="M615,37.162c3.2,0,3.583.012,4.85,0.07,3.251,0.148,4.77,1.691,4.918,4.919,0.058,1.265.069,1.645,0.069,4.849s-0.011,3.584-.069,4.85c-0.149,3.225-1.663,4.771-4.918,4.919-1.267.058-1.645,0.07-4.85,0.07s-3.584-.012-4.85-0.07c-3.259-.149-4.77-1.7-4.919-4.92-0.057-1.265-.069-1.644-0.069-4.849s0.012-3.583.069-4.849c0.149-3.226,1.664-4.771,4.919-4.919C611.415,37.174,611.794,37.162,615,37.162ZM615,35c-3.26,0-3.668.014-4.948,0.072-4.358.2-6.78,2.618-6.98,6.98C603.012,43.332,603,43.74,603,47s0.015,3.668.073,4.948c0.2,4.358,2.619,6.78,6.979,6.98,1.282,0.058,1.69.072,4.95,0.072s3.668-.014,4.947-0.072c4.354-.2,6.783-2.618,6.98-6.98C626.983,50.667,627,50.258,627,47s-0.016-3.667-.073-4.947c-0.2-4.354-2.617-6.78-6.978-6.98C618.667,35.014,618.258,35,615,35Zm0,5.838A6.163,6.163,0,1,0,621.16,47,6.161,6.161,0,0,0,615,40.837ZM615,51a4,4,0,1,1,4-4A4,4,0,0,1,615,51Zm6.4-11.845a1.44,1.44,0,1,0,1.441,1.441A1.44,1.44,0,0,0,621.4,39.154Z" transform="translate(-603 -35)"/>
</svg>
