<svg xmlns="http://www.w3.org/2000/svg" width="36" height="24" viewBox="0 0 36 24">
  <defs>
    <style>
      .cls-1 {
        fill: #fff;
        fill-rule: evenodd;
      }
    </style>
  </defs>
  <path id="ICON_card_diners.svg" class="cls-1" d="M1030.9,56.121a6.866,6.866,0,1,0,6.87,6.867A6.864,6.864,0,0,0,1030.9,56.121Zm-1.55,10.926a4.345,4.345,0,0,1,0-8.122v8.122Zm3.11,0V58.925A4.346,4.346,0,0,1,1032.46,67.049ZM1047,51h-30a3,3,0,0,0-3,3V72a3,3,0,0,0,3,3h30a3,3,0,0,0,3-3V54A3,3,0,0,0,1047,51Zm-14.17,19.5h-1.94a7.51,7.51,0,0,1-7.56-7.434,7.39,7.39,0,0,1,7.56-7.566h1.94a7.668,7.668,0,0,1,7.85,7.565C1040.68,67.157,1036.93,70.5,1032.83,70.5Z" transform="translate(-1014 -51)"/>
</svg>
