<svg xmlns="http://www.w3.org/2000/svg" width="36" height="24" viewBox="0 0 36 24">
  <defs>
    <style>
      .cls-1 {
        fill: #fff;
        fill-rule: evenodd;
      }
    </style>
  </defs>
  <path id="ICON_card_master.svg" class="cls-1" d="M1135,54V72a3,3,0,0,1-3,3h-30a3,3,0,0,1-3-3V54a3,3,0,0,1,3-3h30A3,3,0,0,1,1135,54Zm-30,8.992a7.047,7.047,0,0,0,7.1,6.992,7.125,7.125,0,0,0,3.73-1.046,7.7,7.7,0,0,1,0-11.892A7.125,7.125,0,0,0,1112.1,56,7.047,7.047,0,0,0,1105,62.992Zm24,0a7.1,7.1,0,1,0-7.1,6.992A7.047,7.047,0,0,0,1129,62.992Z" transform="translate(-1099 -51)"/>
</svg>
