<svg xmlns="http://www.w3.org/2000/svg" width="36" height="24" viewBox="0 0 36 24">
  <defs>
    <style>
      .cls-1 {
        fill: #fff;
        fill-rule: evenodd;
      }
    </style>
  </defs>
  <path id="ICON_card_elo.svg" class="cls-1" d="M1093,86v18a3,3,0,0,1-3,3h-30a3,3,0,0,1-3-3V86a3,3,0,0,1,3-3h30A3,3,0,0,1,1093,86Zm-23.12,12.152a2.857,2.857,0,0,1-3.54.377l-1.07,1.7a4.878,4.878,0,0,0,6.01-.64Zm-1.94-6.934a4.879,4.879,0,0,0-4.95,4.806,4.772,4.772,0,0,0,.79,2.74l8.84-3.779a4.876,4.876,0,0,0-4.68-3.767m-2.93,5.184c-0.01-.113-0.02-0.229-0.02-0.346a2.881,2.881,0,0,1,5.08-1.81Zm10.39-7.383v9.426l1.64,0.678-0.78,1.859-1.62-.672a1.8,1.8,0,0,1-.79-0.67,2.1,2.1,0,0,1-.32-1.169V89.019h1.87Zm5.9,4.356a2.879,2.879,0,0,1,3.73,2.151l1.97-.4a4.9,4.9,0,0,0-6.34-3.657Zm-2.32,6.382,1.33-1.505a2.87,2.87,0,0,1,0-4.3l-1.34-1.505A4.886,4.886,0,0,0,1078.98,99.756Zm6.05-3.08a2.878,2.878,0,0,1-3.73,2.148l-0.64,1.906a4.891,4.891,0,0,0,6.34-3.651Z" transform="translate(-1057 -83)"/>
</svg>
