<?xml version="1.0" encoding="utf-8"?>
<!-- Generator: Adobe Illustrator 21.0.0, SVG Export Plug-In . SVG Version: 6.00 Build 0)  -->
<svg version="1.1" id="Layer_1" xmlns="http://www.w3.org/2000/svg" xmlns:xlink="http://www.w3.org/1999/xlink" x="0px" y="0px"
	 viewBox="0 0 36 24" style="enable-background:new 0 0 36 24;" xml:space="preserve">
<style type="text/css">
	.st0{fill:#019179;}
	.st1{fill:#FFFFFF;}
</style>
<path id="ICON_card_aura.svg" class="st0" d="M36,3v18c0,1.7-1.3,3-3,3H3c-1.7,0-3-1.3-3-3V3c0-1.7,1.3-3,3-3h30C34.7,0,36,1.3,36,3
	z"/>
<path class="st1" d="M10.4,17H9.2L6,20.9h1.2l0.9-1.2h3.5l1,1.2h1.3L10.4,17z M8.4,19.3l0.9-1.2c0.2-0.2,0.3-0.5,0.4-0.8
	c0.2,0.3,0.4,0.6,0.6,0.8l0.9,1.1H8.4z"/>
<path class="st1" d="M18.4,20.9v-0.4c-0.3,0.2-0.5,0.3-0.8,0.4C17.3,21,16.9,21,16.5,21c-0.4,0-0.8,0-1.2-0.1
	c-0.3-0.1-0.5-0.2-0.7-0.4c-0.1-0.2-0.2-0.4-0.2-0.6v-1.8h1v1.6c0,0.2,0,0.4,0.1,0.6c0.1,0.1,0.3,0.2,0.4,0.2
	c0.2,0.1,0.5,0.1,0.7,0.1c0.4,0,0.8-0.1,1.2-0.2c0.3-0.1,0.4-0.4,0.4-0.7v-1.5h1v2.9H18.4z"/>
<path class="st1" d="M20.9,20.9v-2.9h0.9v0.4c0.2-0.2,0.4-0.3,0.7-0.4c0.2-0.1,0.4-0.1,0.7-0.1c0.4,0,0.7,0.1,1.1,0.2l-0.3,0.4
	c-0.2-0.1-0.5-0.1-0.7-0.1c-0.2,0-0.4,0-0.6,0.1c-0.2,0-0.3,0.1-0.4,0.2C22,19,22,19.2,22,19.4v1.5L20.9,20.9L20.9,20.9z"/>
<path class="st1" d="M29.7,20.6c-0.1-0.3-0.1-0.6-0.1-0.9v-0.6c0-0.2,0-0.4-0.2-0.6c-0.2-0.2-0.4-0.3-0.7-0.3
	c-0.5-0.1-1-0.2-1.5-0.1c-0.6,0-1.3,0-1.9,0.2c-0.4,0.1-0.7,0.3-0.9,0.7l1,0.1c0.1-0.2,0.3-0.4,0.5-0.4c0.3-0.1,0.7-0.1,1.1-0.1
	c0.4,0,0.8,0,1.2,0.2c0.2,0.1,0.3,0.2,0.3,0.4v0.1c-0.4,0.1-1,0.1-1.8,0.2c-0.5,0-0.9,0.1-1.4,0.2c-0.3,0-0.5,0.2-0.7,0.3
	c-0.2,0.1-0.3,0.3-0.3,0.4c0,0.3,0.3,0.5,0.6,0.6c0.5,0.2,1,0.2,1.5,0.2c0.4,0,0.8,0,1.2-0.1c0.4-0.1,0.7-0.2,1.1-0.3l0,0
	c0,0.1,0.1,0.3,0.2,0.4H30C29.9,20.9,29.8,20.7,29.7,20.6z M28.6,19.7c0,0.2-0.1,0.4-0.2,0.5c-0.2,0.1-0.4,0.3-0.7,0.3
	c-0.3,0.1-0.7,0.1-1,0.1c-0.3,0-0.6,0-0.9-0.1c-0.2,0-0.3-0.2-0.3-0.3c0-0.1,0.1-0.2,0.1-0.2c0.1-0.1,0.3-0.1,0.4-0.2
	c0.3-0.1,0.6-0.1,0.9-0.1c0.6,0,1.1-0.1,1.7-0.2v0l0,0c0,0,0,0,0,0V19.7z"/>
<path class="st1" d="M0,10.8v3.8c11.9-2.5,24.1-2.5,36,0v-3.8C24.2,8,11.8,8,0,10.8z"/>
<path class="st1" d="M25,8c-0.6-2.4-3.7-4.4-7-4.4s-6.4,2-7,4.4C15.7,7.6,20.3,7.6,25,8L25,8z"/>
</svg>
