<svg xmlns="http://www.w3.org/2000/svg" width="24" height="24" viewBox="0 0 24 24">
  <defs>
    <style>
      .cls-1 {
        fill: #fff;
        fill-rule: evenodd;
      }
    </style>
  </defs>
  <path id="ICON_twitter.svg" class="cls-1" d="M651,35H637a5,5,0,0,0-5,5V54a5,5,0,0,0,5,5h14a5,5,0,0,0,5-5V40A5,5,0,0,0,651,35Zm-0.14,9.237a9.335,9.335,0,0,1-14.361,8.29,6.6,6.6,0,0,0,4.859-1.359,3.287,3.287,0,0,1-3.067-2.28,3.3,3.3,0,0,0,1.483-.056,3.285,3.285,0,0,1-2.633-3.26,3.272,3.272,0,0,0,1.485.411A3.289,3.289,0,0,1,637.61,41.6a9.32,9.32,0,0,0,6.767,3.43,3.284,3.284,0,0,1,5.593-2.993,6.581,6.581,0,0,0,2.087-.8,3.3,3.3,0,0,1-1.444,1.816,6.567,6.567,0,0,0,1.885-.517A6.649,6.649,0,0,1,650.859,44.236Z" transform="translate(-632 -35)"/>
</svg>
