<svg xmlns="http://www.w3.org/2000/svg" width="36" height="24" viewBox="0 0 36 24">
  <defs>
    <style>
      .cls-1 {
        fill: #fff;
        fill-rule: evenodd;
      }
    </style>
  </defs>
  <path id="ICON_card_amex.svg" class="cls-1" d="M1084.79,60.509l-1.51,1.637-1.47-1.637h-4.79V65.5h4.72l1.52-1.654,1.47,1.654h1.53l-2.23-2.482,2.23-2.511h-1.47Zm-3.65,3.959h-2.94v-1h2.62V62.454h-2.62V61.542h2.99L1082.5,63Zm-13.08-4.128-0.01-.03h0.01v0.03Zm4.5,3.555L1071,60.509h-1.95v4.721l-2.02-4.721h-1.78l-2.13,4.993h1.3l0.46-1.119h2.48l0.46,1.119h2.43V61.59l1.73,3.912h1.05l1.72-3.912,0.01,3.912h1.18V60.509H1074Zm-7.26-.546,0.82-1.993,0.81,1.993h-1.63ZM1090,51h-30a3,3,0,0,0-3,3V72a3,3,0,0,0,3,3h30a3,3,0,0,0,3-3V54A3,3,0,0,0,1090,51Zm-1.5,15.48h-4.29l-0.95-1.082-1.01,1.082h-15.16l-0.46-1.11h-1.03l-0.45,1.11h-3.65l3.05-6.96h7.15l0.8,1.8,0.78-1.8h9.09l0.92,1.062,0.98-1.062h4.23l-3.06,3.5Z" transform="translate(-1057 -51)"/>
</svg>
