<?xml version="1.0" encoding="utf-8"?>
<!-- Generator: Adobe Illustrator 21.0.0, SVG Export Plug-In . SVG Version: 6.00 Build 0)  -->
<svg version="1.1" id="Layer_1" xmlns="http://www.w3.org/2000/svg" xmlns:xlink="http://www.w3.org/1999/xlink" x="0px" y="0px"
	 viewBox="0 0 36 24" style="enable-background:new 0 0 36 24;" xml:space="preserve">
<style type="text/css">
	.st0{fill:#019179;}
	.st1{fill:#FFFFFF;}
</style>
<path id="ICON_card_boleto.svg" class="st0" d="M36,3v18c0,1.7-1.3,3-3,3H3c-1.7,0-3-1.3-3-3V3c0-1.7,1.3-3,3-3h30
	C34.7,0,36,1.3,36,3z"/>
<rect x="3" y="3" class="st1" width="3" height="9"/>
<rect x="7" y="3" class="st1" width="2" height="9"/>
<rect x="10" y="3" class="st1" width="1" height="9"/>
<rect x="12" y="3" class="st1" width="1" height="9"/>
<rect x="14" y="3" class="st1" width="2" height="9"/>
<rect x="17" y="3" class="st1" width="1" height="9"/>
<rect x="19" y="3" class="st1" width="2" height="9"/>
<rect x="22" y="3" class="st1" width="2" height="9"/>
<rect x="25" y="3" class="st1" width="1" height="9"/>
<rect x="27" y="3" class="st1" width="2" height="9"/>
<rect x="30" y="3" class="st1" width="2" height="9"/>
<rect x="7" y="17" class="st1" width="1" height="2"/>
<rect x="7" y="15" class="st1" width="1" height="1"/>
<polygon class="st1" points="7,20 7,19 4,19 4,17 7,17 7,16 4,16 4,15 7,15 7,14 3,14 3,20 "/>
<rect x="10" y="19" class="st1" width="2" height="1"/>
<rect x="9" y="15" class="st1" width="1" height="4"/>
<rect x="12" y="15" class="st1" width="1" height="4"/>
<rect x="10" y="14" class="st1" width="2" height="1"/>
<polygon class="st1" points="18,20 18,19 15,19 15,14 14,14 14,20 "/>
<polygon class="st1" points="23,20 23,19 20,19 20,17 21,17 21,16 20,16 20,15 23,15 23,14 19,14 19,20 "/>
<polygon class="st1" points="26,20 26,15 27,15 27,14 24,14 24,15 25,15 25,20 "/>
<rect x="29" y="19" class="st1" width="2" height="1"/>
<rect x="28" y="15" class="st1" width="1" height="4"/>
<rect x="31" y="15" class="st1" width="1" height="4"/>
<rect x="29" y="14" class="st1" width="2" height="1"/>
</svg>
