<?xml version="1.0" encoding="utf-8"?>
<!-- Generator: Adobe Illustrator 22.1.0, SVG Export Plug-In . SVG Version: 6.00 Build 0)  -->
<svg version="1.1" id="Camada_1" xmlns="http://www.w3.org/2000/svg" xmlns:xlink="http://www.w3.org/1999/xlink" x="0px" y="0px"
	 viewBox="0 0 33.4 33.6" style="enable-background:new 0 0 33.4 33.6;" xml:space="preserve">
<style type="text/css">
	.st0{fill:#DDDDDD;}
	.st1{fill:#7C7C7C;}
</style>
<circle class="st0" cx="16.8" cy="16.8" r="16.8"/>
<path class="st1" d="M28.7,28.5v-1.3c0-2.5-0.2-4-3.2-4.7c-3.4-0.8-6.6-1.5-5.1-4.4c4.8-8.8,1.3-13.6-3.7-13.6
	c-5.1,0-8.5,4.9-3.7,13.7c1.6,2.9-1.7,3.6-5.1,4.4c-3,0.7-3.2,2.1-3.2,4.7v1.1c0.6,0.6,1.3,1.2,2,1.8c0-1.4,0-2.7,0-2.9
	c0-2,0.2-2.3,1.8-2.7c2.9-0.7,5.5-1.3,6.5-3.5c0.4-0.8,0.6-2.1-0.3-3.8c-2-3.9-2.6-7.2-1.4-9.1c1.4-2.3,5.4-2.3,6.8,0
	c1.1,1.9,0.6,5.2-1.4,9.1c-0.9,1.7-0.7,3-0.3,3.8c1,2.2,3.7,2.8,6.6,3.5c1.6,0.4,1.7,0.7,1.8,2.7c0,0.2,0,1.5,0,3
	C27.4,29.7,28.1,29.1,28.7,28.5z"/>
</svg>
