<svg xmlns="http://www.w3.org/2000/svg" width="36" height="24" viewBox="0 0 36 24">
  <defs>
    <style>
      .cls-1 {
        fill: #fff;
        fill-rule: evenodd;
      }
    </style>
  </defs>
  <path id="ICON_card_aura.svg" class="cls-1" d="M1135,86v18a3,3,0,0,1-3,3h-30a3,3,0,0,1-3-3V86a3,3,0,0,1,3-3h30A3,3,0,0,1,1135,86Zm-29.99,17.937,3.19-3.946h1.18l3.39,3.946h-1.25l-0.97-1.195h-3.46l-0.92,1.195h-1.16Zm2.39-1.62h2.81l-0.86-1.093a8.24,8.24,0,0,1-.59-0.818,2.952,2.952,0,0,1-.45.754l-0.91,1.157h0Zm10.04,1.62v-0.419a2.59,2.59,0,0,1-.83.362,4.408,4.408,0,0,1-1.08.122,4.34,4.34,0,0,1-1.21-.149,1.235,1.235,0,0,1-.67-0.379,1.046,1.046,0,0,1-.17-0.624v-1.771h1.01v1.585a1.009,1.009,0,0,0,.12.591,0.751,0.751,0,0,0,.42.24,2.464,2.464,0,0,0,.7.09,2.67,2.67,0,0,0,1.2-.235,0.746,0.746,0,0,0,.4-0.739v-1.532h1.02v2.858h-0.91Zm2.5,0v-2.858h0.92v0.433a2.061,2.061,0,0,1,.65-0.4,2.017,2.017,0,0,1,.65-0.1,3.775,3.775,0,0,1,1.05.156l-0.35.45a2.717,2.717,0,0,0-.74-0.106,1.9,1.9,0,0,0-.59.09,0.694,0.694,0,0,0-.38.247,1,1,0,0,0-.19.59v1.5h-1.02Zm7.78-.352a5.535,5.535,0,0,1-1.06.312,6.149,6.149,0,0,1-1.15.1,4.2,4.2,0,0,1-1.5-.221,0.691,0.691,0,0,1-.55-0.594,0.526,0.526,0,0,1,.26-0.439,1.922,1.922,0,0,1,.72-0.3,8.415,8.415,0,0,1,1.38-.159c0.82-.047,1.43-0.1,1.82-0.167V102a0.418,0.418,0,0,0-.27-0.413,2.943,2.943,0,0,0-1.16-.172,3.664,3.664,0,0,0-1.06.114,0.85,0.85,0,0,0-.52.43l-1-.065a1.327,1.327,0,0,1,.86-0.67,6.484,6.484,0,0,1,1.87-.21,6.221,6.221,0,0,1,1.48.138,1.178,1.178,0,0,1,.68.344,1,1,0,0,1,.15.6v0.646a3.554,3.554,0,0,0,.06.855,0.828,0.828,0,0,0,.26.343h-1.06a0.648,0.648,0,0,1-.21-0.352h0Zm-0.08-1.083a14.977,14.977,0,0,1-1.67.184,7.249,7.249,0,0,0-.89.1,1.075,1.075,0,0,0-.4.156,0.3,0.3,0,0,0-.14.233,0.4,0.4,0,0,0,.32.327,2.656,2.656,0,0,0,.9.122,4.134,4.134,0,0,0,.99-0.11,1.692,1.692,0,0,0,.67-0.3,0.679,0.679,0,0,0,.22-0.536V102.5h0ZM1099,93.776v3.788a88.151,88.151,0,0,1,36,0V93.776A78.68,78.68,0,0,0,1099,93.776ZM1124,92c-0.64-2.426-3.68-4.418-6.99-4.418S1110.64,89.574,1110,92a74.382,74.382,0,0,1,14,0h0Z" transform="translate(-1099 -83)"/>
</svg>
