<svg xmlns="http://www.w3.org/2000/svg" width="22.69" height="20" viewBox="0 0 22.69 20">
  <defs>
    <style>
      .cls-1 {
        fill: #303030;
        fill-rule: evenodd;
      }
    </style>
  </defs>
  <path id="ICON_addfavorito_hover.svg" class="cls-1" d="M2226.11,4413.74c-1.1,1.03-2.26,2.12-3.45,3.25-6.07-5.79-11.33-10.13-11.33-14.36,0-3.65,2.92-5.63,5.93-5.63a6.432,6.432,0,0,0,10.81.01c3,0,5.92,1.97,5.92,5.62a7.029,7.029,0,0,1-1.09,3.5l-1.4-1.34a4.81,4.81,0,0,0,.6-2.16,3.768,3.768,0,0,0-4.03-3.81c-3.08,0-4.7,3.16-5.41,4.57-0.7-1.4-2.35-4.57-5.4-4.58a3.758,3.758,0,0,0-4.04,3.82c0,3.12,4.47,7.13,9.44,11.81l2.11-1.99Zm6.94-4.93h-2.84v-2.72h-1.88v2.72h-2.84v1.82h2.84v2.73h1.88v-2.73h2.84v-1.82Z" transform="translate(-2211.31 -4397)"/>
</svg>
