<svg xmlns="http://www.w3.org/2000/svg" width="36" height="24" viewBox="0 0 36 24">
  <defs>
    <style>
      .cls-1 {
        fill: #fff;
        fill-rule: evenodd;
      }
    </style>
  </defs>
  <path id="ICON_card_boleto.svg" class="cls-1" d="M1178,86v18a3,3,0,0,1-3,3h-30a3,3,0,0,1-3-3V86a3,3,0,0,1,3-3h30A3,3,0,0,1,1178,86Zm-33,0h3v9h-3V86Zm4,0h2v9h-2V86Zm3,0h1v9h-1V86Zm2,0h1v9h-1V86Zm2,0h2v9h-2V86Zm3,0h1v9h-1V86Zm2,0h2v9h-2V86Zm3,0h2v9h-2V86Zm3,0h1v9h-1V86Zm2,0h2v9h-2V86Zm3,0h2v9h-2V86Zm-22,16v-2h-1v2h1Zm0-3V98h-1v1h1Zm-1,4v-1h-3v-2h3V99h-3V98h3V97h-4v6h4Zm5,0v-1h-2v1h2Zm-2-1V98h-1v4h1Zm3,0V98h-1v4h1Zm-1-4V97h-2v1h2Zm6,5v-1h-3V97h-1v6h4Zm5,0v-1h-3v-2h1V99h-1V98h3V97h-4v6h4Zm3,0V98h1V97h-3v1h1v5h1Zm5,0v-1h-2v1h2Zm-2-1V98h-1v4h1Zm3,0V98h-1v4h1Zm-1-4V97h-2v1h2Z" transform="translate(-1142 -83)"/>
</svg>
