<svg xmlns="http://www.w3.org/2000/svg" width="36" height="24" viewBox="0 0 36 24">
  <defs>
    <style>
      .cls-1 {
        fill: #fff;
        fill-rule: evenodd;
      }
    </style>
  </defs>
  <path id="ICON_card_hipercard.svg" class="cls-1" d="M1219,54V72a3,3,0,0,1-3,3h-30a3,3,0,0,1-3-3V54a3,3,0,0,1,3-3h30A3,3,0,0,1,1219,54Zm-27.61,7.042a0.679,0.679,0,0,0,.14-0.869,0.478,0.478,0,0,0-.4-0.059,0.472,0.472,0,0,0-.33.178,0.723,0.723,0,0,0-.04.75A0.609,0.609,0,0,0,1191.39,61.042Zm-2.4-.869c-0.13.787-.26,1.559-0.4,2.33-0.88.009-1.77,0.044-2.62-.02,0.16-.754.27-1.554,0.43-2.31h-0.94c-0.34,1.925-.65,3.88-1.03,5.765h0.97c0.15-.967.29-1.944,0.49-2.863a23.484,23.484,0,0,1,2.6.02c-0.16.955-.36,1.877-0.51,2.843h0.97c0.31-1.953.63-3.89,1.02-5.765h-0.98Zm13.66,1.659a1.308,1.308,0,0,0-1.62.691c0.06-.214.09-0.465,0.14-0.691h-0.75c-0.18,1.422-.45,2.758-0.71,4.107h0.85a16.686,16.686,0,0,1,.43-2.646,1.183,1.183,0,0,1,1.56-.849C1202.56,62.218,1202.63,62.046,1202.65,61.832Zm0.47,3.139a2.022,2.022,0,0,1-.08-0.79,2.744,2.744,0,0,1,.58-1.58,2.072,2.072,0,0,1,2.01-.118c0.02-.235.07-0.445,0.09-0.671a3.178,3.178,0,0,0-2.79.533,3.356,3.356,0,0,0-.68,2.8c0.31,1,1.68,1.054,2.78.671,0.05-.2.08-0.425,0.12-0.632C1204.55,65.5,1203.39,65.667,1203.12,64.971Zm9.53-3.12a1.3,1.3,0,0,0-1.62.632c0.07-.194.07-0.453,0.14-0.652h-0.75c-0.2,1.41-.45,2.779-0.73,4.107h0.87a9.225,9.225,0,0,1,.19-1.481c0.18-1.14.45-2.39,1.78-2.014A5.541,5.541,0,0,1,1212.65,61.851Zm-22.13-.02c-0.02,0-.02.031-0.02,0.059-0.18,1.4-.44,2.732-0.71,4.047h0.85c0.21-1.408.44-2.787,0.73-4.107h-0.85Zm7.46-.079a2.206,2.206,0,0,0-1.5.612,3.426,3.426,0,0,0-.71,2.488c0.15,1.368,1.85,1.319,3.21.987,0.02-.24.08-0.445,0.12-0.671a2.7,2.7,0,0,1-2.11.138,1.49,1.49,0,0,1-.3-1.58c0.92-.029,1.87-0.023,2.78,0a2.836,2.836,0,0,0,.08-1.323A1.4,1.4,0,0,0,1197.98,61.753Zm0.8,1.5h-1.99a1.188,1.188,0,0,1,1.13-.987A0.722,0.722,0,0,1,1198.78,63.253Zm-4.02-1.422a2.232,2.232,0,0,0-1.97.359,0.017,0.017,0,0,1-.02.016c0.01-.005.01-0.011,0.02-0.016v0c0.01-.132.05-0.224,0.06-0.355h-0.73c-0.3,2.026-.66,3.994-1.04,5.943h0.84c0.13-.759.21-1.56,0.38-2.271,0.19,0.748,1.46.6,1.99,0.316C1195.39,65.224,1196.24,62.387,1194.76,61.832Zm-0.67,3.337c-0.45.481-1.57,0.474-1.65-.336a4.13,4.13,0,0,1,.15-1.086c0.07-.369.12-0.723,0.18-1.046,0.45-.546,1.76-0.612,1.89.3A2.975,2.975,0,0,1,1194.09,65.168Zm21.71-5.114a17.024,17.024,0,0,1-.3,1.836c-2.08-.659-3.35.873-3.33,2.764a1.513,1.513,0,0,0,.3.987,1.915,1.915,0,0,0,2.09.178,1.37,1.37,0,0,0,.29-0.3,0.509,0.509,0,0,1,.16-0.2,5.487,5.487,0,0,0-.08.612h0.77a54.288,54.288,0,0,1,.95-5.884h-0.85Zm-1.89,5.43a0.812,0.812,0,0,1-.87-0.928c-0.02-1.027.43-2.168,1.34-2.271a2.251,2.251,0,0,1,1.05.158C1215.14,63.6,1215.24,65.456,1213.91,65.484Zm-7.32-3.653c-0.04.235-.1,0.447-0.16,0.671,0.51-.126,2.06-0.511,2.21.158a1.1,1.1,0,0,1-.1.632c-1.4-.134-2.55.1-2.85,1.106a1.239,1.239,0,0,0,.45,1.52,1.887,1.887,0,0,0,2.19-.612,2.476,2.476,0,0,0-.06.632H1209a12.486,12.486,0,0,1,.21-1.9,6.831,6.831,0,0,0,.24-1.54C1209.39,61.419,1207.6,61.8,1206.59,61.832Zm1.38,3.317c-0.43.428-1.66,0.55-1.54-.474,0.11-.85,1.03-1.031,2.04-0.908A2.522,2.522,0,0,1,1207.97,65.149Z" transform="translate(-1183 -51)"/>
</svg>
