<svg xmlns="http://www.w3.org/2000/svg" width="14" height="16.82" viewBox="0 0 14 16.82">
  <defs>
    <style>
      .cls-1 {
        fill: #444;
        fill-rule: evenodd;
      }
    </style>
  </defs>
  <path id="ICON_lixo.svg" class="cls-1" d="M21470.9,2741.9a0.7,0.7,0,0,1-1.4,0v-7a0.7,0.7,0,0,1,1.4,0v7Zm2.8,0a0.7,0.7,0,1,1-1.4,0v-7a0.7,0.7,0,1,1,1.4,0v7Zm2.8,0a0.7,0.7,0,0,1-1.4,0v-7a0.7,0.7,0,0,1,1.4,0v7Zm3.5-11.9v1.4h-14V2730h4a1.386,1.386,0,0,0,1.1-1.4h3.8a1.386,1.386,0,0,0,1.1,1.4h4Zm-2.1,2.8V2744h-9.8v-11.2h-1.4v12.6h12.6v-12.6h-1.4Z" transform="translate(-21466 -2728.59)"/>
</svg>
