<svg xmlns="http://www.w3.org/2000/svg" width="36" height="24" viewBox="0 0 36 24">
  <defs>
    <style>
      .cls-1 {
        fill: #fff;
        fill-rule: evenodd;
      }
    </style>
  </defs>
  <path id="ICON_card_discover.svg" class="cls-1" d="M1044.89,93.778h-0.26V92.39h0.28a0.7,0.7,0,0,1,.86.68A0.72,0.72,0,0,1,1044.89,93.778Zm-25.26-1.334h-0.24v3.031h0.24a1.708,1.708,0,0,0,1.23-.364,1.568,1.568,0,0,0,.49-1.155,1.537,1.537,0,0,0-.49-1.142A1.679,1.679,0,0,0,1019.63,92.444ZM1050,86v18a3,3,0,0,1-3,3h-30a3,3,0,0,1-3-3V86a3,3,0,0,1,3-3h30A3,3,0,0,1,1050,86Zm-6.26,10.252h0.89V94.411h0.12l1.24,1.842h1.1l-1.45-1.932a1.218,1.218,0,0,0,1.05-1.3,1.372,1.372,0,0,0-1.63-1.353h-1.32v4.585h0Zm-3.13,0h2.54V95.477h-1.64V94.24h1.58V93.463h-1.58V92.446h1.64V91.667h-2.54v4.585Zm-4.81-4.585,1.94,4.7h0.49l1.98-4.7h-0.97L1038,94.747l-1.22-3.079h-0.98Zm-4.64,2.317a2.49,2.49,0,1,0,2.49-2.489A2.486,2.486,0,0,0,1031.16,93.985Zm-3.79-.021a2.37,2.37,0,0,0,2.42,2.392,2.486,2.486,0,0,0,1.12-.267V95.036a1.441,1.441,0,0,1-1.08.5,1.5,1.5,0,0,1-1.54-1.581,1.523,1.523,0,0,1,1.49-1.575,1.491,1.491,0,0,1,1.12.516V91.846a2.249,2.249,0,0,0-1.09-.282A2.407,2.407,0,0,0,1027.37,93.964Zm-5.1,0a2.277,2.277,0,0,0-2.46-2.3h-1.31v4.584h1.31a2.375,2.375,0,0,0,1.63-.529A2.31,2.31,0,0,0,1022.27,93.964Zm1.31-2.3h-0.9v4.584h0.9V91.667Zm2.58,3.231a0.649,0.649,0,0,1-.69.647,1.063,1.063,0,0,1-.98-0.612l-0.57.556a1.769,1.769,0,0,0,1.58.873,1.477,1.477,0,0,0,1.58-1.506c0-.729-0.3-1.057-1.31-1.429-0.54-.2-0.7-0.33-0.7-0.578a0.588,0.588,0,0,1,.67-0.508,0.929,0.929,0,0,1,.72.37l0.47-.612a2.029,2.029,0,0,0-1.35-.507,1.348,1.348,0,0,0-1.43,1.314,1.268,1.268,0,0,0,1.13,1.257,3.567,3.567,0,0,1,.62.261A0.561,0.561,0,0,1,1026.16,94.9Zm22.34,1.826s-8.6,6.067-24.34,8.781h22.46a1.877,1.877,0,0,0,1.88-1.875V96.724Z" transform="translate(-1014 -83)"/>
</svg>
