<svg xmlns="http://www.w3.org/2000/svg" width="20.56" height="12" viewBox="0 0 20.56 12">
  <defs>
    <style>
      .cls-1 {
        fill: #5a5a5a;
        fill-rule: evenodd;
      }
    </style>
  </defs>
  <path id="ICON_olho.svg" class="cls-1" d="M4094.01,6311.71a11.137,11.137,0,0,1,8.14,3.98c-1.2,1.57-4.04,4.59-8.14,4.59-3.79,0-6.8-3.03-8.13-4.63A11.307,11.307,0,0,1,4094.01,6311.71Zm0-1.71c-6.49,0-10.3,5.61-10.3,5.61s4.14,6.39,10.3,6.39c6.63,0,10.27-6.39,10.27-6.39S4100.6,6310,4094.01,6310Zm-0.01,2.57a3.43,3.43,0,1,0,3.42,3.43A3.429,3.429,0,0,0,4094,6312.57Z" transform="translate(-4083.72 -6310)"/>
</svg>
