<svg xmlns="http://www.w3.org/2000/svg" width="22.69" height="20" viewBox="0 0 22.69 20">
  <defs>
    <style>
      .cls-1 {
        fill: #9a9a9a;
        fill-rule: evenodd;
      }
    </style>
  </defs>
  <path id="ICON_addfavorito_ativo.svg" class="cls-1" d="M2226.11,4377.74c-1.1,1.03-2.26,2.12-3.45,3.26-6.07-5.8-11.33-10.14-11.33-14.38,0-3.64,2.92-5.62,5.93-5.62a6.432,6.432,0,0,0,10.81.01c3,0,5.92,1.97,5.92,5.61a7.1,7.1,0,0,1-1.09,3.52l-1.4-1.35a4.815,4.815,0,0,0,.6-2.17,3.766,3.766,0,0,0-4.03-3.8c-3.08,0-4.7,3.16-5.41,4.57-0.7-1.4-2.35-4.57-5.4-4.58a3.756,3.756,0,0,0-4.04,3.81c0,3.13,4.47,7.14,9.44,11.82l2.11-1.99Zm6.94-4.93h-2.84v-2.72h-1.88v2.72h-2.84v1.82h2.84v2.73h1.88v-2.73h2.84v-1.82Z" transform="translate(-2211.31 -4361)"/>
</svg>
