<?xml version="1.0" encoding="utf-8"?>
<!-- Generator: Adobe Illustrator 21.0.0, SVG Export Plug-In . SVG Version: 6.00 Build 0)  -->
<svg version="1.1" id="Layer_1" xmlns="http://www.w3.org/2000/svg" xmlns:xlink="http://www.w3.org/1999/xlink" x="0px" y="0px"
	 viewBox="0 0 36 24" style="enable-background:new 0 0 36 24;" xml:space="preserve">
<style type="text/css">
	.st0{fill:#019179;}
	.st1{fill:#FFFFFF;}
</style>
<path id="ICON_card_master.svg" class="st0" d="M36,3v18c0,1.7-1.3,3-3,3H3c-1.7,0-3-1.3-3-3V3c0-1.7,1.3-3,3-3h30
	C34.7,0,36,1.3,36,3z"/>
<path class="st1" d="M6,12c0,3.9,3.2,7,7.1,7c1.3,0,2.6-0.4,3.7-1c-3.3-2.7-3.8-7.6-1.1-10.8c0.3-0.4,0.7-0.7,1.1-1.1
	c-1.1-0.7-2.4-1-3.7-1C9.2,5,6,8.1,6,12z"/>
<path class="st1" d="M30,12c0.1-3.9-3.1-7.1-7-7.2s-7.1,3.1-7.2,7s3.1,7.1,7,7.2c0,0,0.1,0,0.1,0C26.8,19,30,15.9,30,12z"/>
</svg>
