<?xml version="1.0" encoding="utf-8"?>
<!-- Generator: Adobe Illustrator 21.0.0, SVG Export Plug-In . SVG Version: 6.00 Build 0)  -->
<svg version="1.1" id="Layer_1" xmlns="http://www.w3.org/2000/svg" xmlns:xlink="http://www.w3.org/1999/xlink" x="0px" y="0px"
	 viewBox="0 0 36 24" style="enable-background:new 0 0 36 24;" xml:space="preserve">
<style type="text/css">
	.st0{fill:#019179;}
	.st1{fill:#FFFFFF;}
</style>
<path id="ICON_card_amex.svg" class="st0" d="M33,0H3C1.3,0,0,1.3,0,3v18c0,1.7,1.3,3,3,3h30c1.7,0,3-1.3,3-3V3C36,1.3,34.7,0,33,0z
	"/>
<polygon class="st1" points="11.1,9.3 11.1,9.3 11.1,9.3 "/>
<g>
	<polygon class="st1" points="21.2,10.5 21.2,11.5 23.8,11.5 23.8,12.5 21.2,12.5 21.2,13.5 24.1,13.5 25.5,12 24.2,10.5 	"/>
	<path class="st1" d="M31.5,8.5h-4.2l-1,1.1l-0.9-1.1h-9.1l-0.8,1.8l-0.8-1.8H7.6l-3.1,7h3.7l0.4-1.1h1l0.5,1.1h15.2l1-1.1l0.9,1.1
		h4.3L28.4,12L31.5,8.5z M18.9,14.5h-1.2l0-3.9L16,14.5H15l-1.7-3.9v3.9h-2.4l-0.5-1.1H7.9l-0.5,1.1H6.1l2.1-5H10l2,4.7V9.5H14
		l1.6,3.4L17,9.5h1.9V14.5z M29.3,14.5h-1.5l-1.5-1.7l-1.5,1.7H20v-5h4.8l1.5,1.6l1.5-1.6v0h1.5L27,12L29.3,14.5z"/>
	<polygon class="st1" points="8.3,12.3 9.9,12.3 9.1,10.4 	"/>
</g>
</svg>
