<?xml version="1.0" encoding="utf-8"?>
<!-- Generator: Adobe Illustrator 21.0.0, SVG Export Plug-In . SVG Version: 6.00 Build 0)  -->
<svg version="1.1" id="Layer_1" xmlns="http://www.w3.org/2000/svg" xmlns:xlink="http://www.w3.org/1999/xlink" x="0px" y="0px"
	 viewBox="0 0 36 24" style="enable-background:new 0 0 36 24;" xml:space="preserve">
<style type="text/css">
	.st0{fill:#019179;}
	.st1{fill:#FFFFFF;}
</style>
<path id="ICON_card_hipercard.svg" class="st0" d="M36,3v18c0,1.7-1.3,3-3,3H3c-1.7,0-3-1.3-3-3V3c0-1.7,1.3-3,3-3h30
	C34.7,0,36,1.3,36,3z"/>
<path class="st1" d="M8.4,10c0.3-0.2,0.3-0.6,0.1-0.9C8.4,9.1,8.3,9.1,8.1,9.1C8,9.1,7.9,9.2,7.8,9.3c-0.2,0.2-0.2,0.5,0,0.8
	C8,10.2,8.2,10.2,8.4,10z"/>
<path class="st1" d="M6,9.2c-0.1,0.8-0.3,1.6-0.4,2.3c-0.9,0-1.8,0-2.6,0c0.2-0.8,0.3-1.6,0.4-2.3H2.5c-0.3,1.9-0.7,3.9-1,5.8h1
	c0.2-1,0.3-1.9,0.5-2.9c0.9,0,1.7,0,2.6,0C5.3,13,5.1,14,5,14.9h1c0.3-2,0.6-3.9,1-5.8C7,9.2,6,9.2,6,9.2z"/>
<path class="st1" d="M19.7,10.8c-0.6-0.2-1.3,0.1-1.6,0.7c0.1-0.2,0.1-0.5,0.1-0.7h-0.8c-0.2,1.4-0.4,2.8-0.7,4.1h0.8
	c0.1-0.9,0.2-1.8,0.4-2.6c0.1-0.6,0.8-1,1.4-0.9c0,0,0.1,0,0.1,0C19.6,11.2,19.6,11,19.7,10.8z"/>
<path class="st1" d="M20.1,14C20,13.7,20,13.4,20,13.2c0-0.6,0.2-1.1,0.6-1.6c0.6-0.4,1.4-0.4,2-0.1c0-0.2,0.1-0.4,0.1-0.7
	c-1-0.3-2-0.1-2.8,0.5c-0.6,0.8-0.9,1.8-0.7,2.8c0.3,1,1.7,1.1,2.8,0.7c0.1-0.2,0.1-0.4,0.1-0.6C21.6,14.5,20.4,14.7,20.1,14z"/>
<path class="st1" d="M29.7,10.9c-0.6-0.2-1.3,0-1.6,0.6c0.1-0.2,0.1-0.5,0.1-0.7h-0.8c-0.2,1.4-0.4,2.8-0.7,4.1h0.9
	c0-0.5,0.1-1,0.2-1.5c0.2-1.1,0.4-2.4,1.8-2C29.6,11.2,29.6,11,29.7,10.9z"/>
<path class="st1" d="M7.5,10.8C7.5,10.8,7.5,10.9,7.5,10.8c-0.2,1.5-0.5,2.8-0.7,4.1h0.8c0.2-1.4,0.4-2.8,0.7-4.1L7.5,10.8L7.5,10.8
	z"/>
<path class="st1" d="M16.5,12.7c0.1-0.4,0.2-0.9,0.1-1.3c-0.3-0.5-1-0.8-1.6-0.7v0c-0.6,0-1.1,0.2-1.5,0.6c-0.6,0.7-0.8,1.6-0.7,2.5
	c0.2,1.4,1.8,1.3,3.2,1c0-0.2,0.1-0.4,0.1-0.7c-0.7,0.3-1.4,0.4-2.1,0.1c-0.4-0.4-0.5-1-0.3-1.6C14.6,12.7,15.6,12.7,16.5,12.7z
	 M14.9,11.3c0.4-0.1,0.8,0.1,0.9,0.5c0,0.2,0,0.3,0,0.5v0h-2C13.9,11.7,14.4,11.3,14.9,11.3z"/>
<path class="st1" d="M11.8,10.8L11.8,10.8c-0.7-0.2-1.4-0.1-2,0.4c0,0,0,0,0,0c0,0,0,0,0,0c0,0,0,0,0,0c0-0.1,0.1-0.2,0.1-0.4H9.1
	c-0.3,2-0.7,4-1,5.9h0.8c0.1-0.8,0.2-1.6,0.4-2.3c0.2,0.7,1.5,0.6,2,0.3C12.4,14.2,13.2,11.4,11.8,10.8z M11.1,14.2L11.1,14.2
	c-0.4,0.5-1.6,0.5-1.7-0.3c0-0.4,0.1-0.7,0.2-1.1c0.1-0.4,0.1-0.7,0.2-1c0.4-0.5,1.8-0.6,1.9,0.3C11.8,12.8,11.6,13.5,11.1,14.2z"/>
<path class="st1" d="M32.8,9L32.8,9c-0.1,0.6-0.2,1.2-0.3,1.8c-2.1-0.7-3.3,0.9-3.3,2.8c0,0.4,0.1,0.7,0.3,1
	c0.6,0.5,1.4,0.5,2.1,0.2c0.1-0.1,0.2-0.2,0.3-0.3c0-0.1,0.1-0.1,0.2-0.2c0,0.2-0.1,0.4-0.1,0.6h0.8c0.2-2,0.5-3.9,0.9-5.9H32.8z
	 M30.9,14.5L30.9,14.5c-0.4,0-0.8-0.3-0.9-0.7c0-0.1,0-0.1,0-0.2c0-1,0.4-2.2,1.3-2.3c0.4,0,0.7,0,1.1,0.2
	C32.1,12.6,32.2,14.5,30.9,14.5z"/>
<path class="st1" d="M23.6,10.8L23.6,10.8c0,0.2-0.1,0.4-0.2,0.7c0.5-0.1,2.1-0.5,2.2,0.2c0,0.2,0,0.4-0.1,0.6
	c-1.4-0.1-2.6,0.1-2.8,1.1c-0.2,0.5,0,1.2,0.4,1.5c0.8,0.3,1.7,0.1,2.2-0.6c0,0.2-0.1,0.4-0.1,0.6H26c0-0.6,0.1-1.3,0.2-1.9
	c0.1-0.5,0.2-1,0.2-1.5C26.4,10.4,24.6,10.8,23.6,10.8z M25,14.1L25,14.1c-0.4,0.4-1.7,0.5-1.5-0.5c0.1-0.9,1-1,2-0.9
	C25.4,13.3,25.3,13.7,25,14.1z"/>
</svg>
