<svg xmlns="http://www.w3.org/2000/svg" width="36" height="24" viewBox="0 0 36 24">
  <defs>
    <style>
      .cls-1 {
        fill: #fff;
        fill-rule: evenodd;
      }
    </style>
  </defs>
  <path id="ICON_card_visa.svg" class="cls-1" d="M1171.49,61.734l0.57,2.574h-2.02l0.97-2.492,0.32-.85ZM1178,54V72a3,3,0,0,1-3,3h-30a3,3,0,0,1-3-3V54a3,3,0,0,1,3-3h30A3,3,0,0,1,1178,54Zm-25.72,13.457,3.82-8.894h-2.57l-2.38,6.076-0.25-1.234-0.85-4.095a1.022,1.022,0,0,0-1.1-.753h-3.92l-0.03.184a10.346,10.346,0,0,1,2.55.977l2.16,7.74h2.57Zm7.24-8.9h-2.43l-1.52,8.911H1158Zm6.93,6c0.01-1.014-.63-1.785-2.04-2.421-0.84-.413-1.37-0.687-1.36-1.1,0-.371.44-0.767,1.39-0.767a4.466,4.466,0,0,1,1.82.342l0.22,0.1,0.33-1.93a6.317,6.317,0,0,0-2.18-.375c-2.4,0-4.09,1.209-4.11,2.941-0.01,1.281,1.21,1.995,2.13,2.421,0.95,0.437,1.26.715,1.26,1.105a1.249,1.249,0,0,1-1.45.87,5.088,5.088,0,0,1-2.29-.468l-0.31-.142-0.34,2a7.6,7.6,0,0,0,2.7.475C1164.78,67.6,1166.43,66.4,1166.45,64.554ZM1175,67.47l-1.97-8.905h-1.87a1.216,1.216,0,0,0-1.28.739l-3.6,8.166h2.55l0.51-1.34,3.11,0,0.3,1.335H1175Z" transform="translate(-1142 -51)"/>
</svg>
